<svg id="Layer_1" enable-background="new 0 0 512.069 512.069" height="512" viewBox="0 0 512.069 512.069" width="512" xmlns="http://www.w3.org/2000/svg"><g><g><path d="m167.853 135.636c0-5.523-4.477-10-10-10h-.007c-5.523 0-9.996 4.477-9.996 10 .528 13.263 19.479 13.261 20.003 0z"/><path d="m444.865 150.727h-3.619c24.604-85.859-45.695-164.175-131.194-148.718-11.187-3.45-22.707-2.297-33.413 3.365-7.472 3.951-14.376 9.98-20.629 18-14.092-17.912-31.585-26.022-49.487-22.497-1.521.3-3.024.677-4.508 1.131-42.66-8.45-90.007 10.322-114.946 45.922-55.473 76.43 7.749 177.811 77.055 236.36l31.911 119.095v22.764c-1.532-.239-3.083-.37-4.639-.39-3.443-10.542-12.179-18.713-23.055-21.357-15.953-48.92-86.203-44.74-96.775 5.324h-4.362c-54.632 2.268-54.59 80.094 0 82.341h123.793c2.196 0 4.383-.224 6.526-.659 3.935 11.983 15.229 20.66 28.511 20.66h60c16.542 0 30-13.458 30-30v-78.684l31.915-119.11c18.145-15.923 35.064-33.516 49.166-51.207h47.749c54.633-2.267 54.592-80.093.001-82.34zm-43.657-100.326c18.474 19.795 26.827 45.415 24.436 73.791-15.369-15.123-42.084-17.971-60.466-6.205.329-23.296-2.956-45.004-9.772-63.976-4.837-13.46-11.369-24.941-19.053-33.803 24.385 1.342 47.873 11.996 64.855 30.193zm-96.229-29.012c25.633 8.846 47.114 58.626 38.021 124.201-10.536 2.826-18.96 10.864-22.327 21.17-40.571 1.683-44.457 58.435-4.872 65.889-16.275 34.39-35.514 61.615-49.767 76.586v-265.1c7.259-12.126 20.997-28.94 38.945-22.746zm-6.617 370.68h-32.327v-54.657c15.711-5.614 34.966-16.642 55.496-31.814zm-84.654 0-23.172-86.479c20.244 14.932 39.773 26.152 55.498 31.811v54.669h-32.326zm-104.854-202.753c-28.269-47.895-30.283-95.184-5.527-129.739 16.685-23.292 43.839-37.591 72.184-39.305-13.665 15.858-23.451 40.066-27.068 69.135-.682 5.481 3.208 10.477 8.688 11.158 5.484.681 10.477-3.208 11.158-8.688 5.528-44.431 25.698-68.146 42.099-71.377 12.487-2.454 25.074 5.92 35.646 23.633v265.169c-6.891-7.183-15.328-17.65-24.708-31.908-17.352-26.374-32.125-56.947-41.599-86.087-1.464-4.503-2.86-9.212-4.15-13.996-1.437-5.333-6.927-8.487-12.257-7.054-5.333 1.438-8.491 6.925-7.054 12.258 1.378 5.112 2.872 10.151 4.441 14.976 11.525 35.449 29.471 69.918 47.525 96.201-38.77-27.136-78.472-68.362-99.378-104.376zm-41.65 282.752c-28.093-1.166-28.072-41.186 0-42.341h13.359c5.523 0 10-4.477 10-10 1.168-37.046 52.85-40.941 59.79-4.687.772 4.949 5.096 8.6 10.094 8.456l.269-.004c6.763 0 12.265 5.502 12.265 12.265 0 5.523 4.477 10 10 10h8.017c1.754 0 3.455.344 5.037 1.01v24.29c-1.582.666-3.283 1.01-5.037 1.01h-123.794zm228.831 10.001c0 5.514-4.486 10-10 10h-60c-5.514 0-10-4.486-10-10v-70h80zm7.871-188.463c12.093-17.661 23.965-38.731 33.71-60.538h33.418c-20.809 23.687-44.948 44.839-67.128 60.538zm140.959-80.538h-123.793c-17.457-.725-17.445-25.592 0-26.311h8.017c5.522 0 10-4.477 10-10 0-6.763 5.502-12.265 12.265-12.265l.27.004c4.981.121 9.32-3.507 10.094-8.456 6.953-36.275 58.628-32.34 59.789 4.686 0 5.523 4.478 10 10 10h13.359c28.092 1.167 28.071 41.187-.001 42.342z"/></g></g></svg>